<svg version="1.2" xmlns="http://www.w3.org/2000/svg" viewBox="0 0 164 206" width="72" height="90">
	<title>siltec-svg</title>
	<style>
		.s0 { fill: #0b3e4b } 
	</style>
	<g id="Layer">
		<path id="Layer" class="s0" d="m0.6 99.6c0-22.5 5.2-41.7 17-58.8 14-20.3 33.2-32.9 57.2-38.1 9.2-2 18.6-2.9 28.1-2.8 6.9 0.1 13.7 1.1 20.4 2.9 3.4 0.9 6.7 2.2 9.6 4.3 5.6 4.1 6.8 11.8 2.6 17.4-2.5 3.4-6 4.7-10.1 4.2-3.2-0.4-6.3-1.2-9.4-1.6-11.6-1.6-23.3-2.4-34.8 0.1-23.6 5.1-39.6 19.2-48.3 41.6-4.8 12.4-6 25.4-4.7 38.7 1 10.6 3.5 20.8 8.2 30.4 8 16.2 19.7 28.7 36.2 36.2 22.2 10.1 43.6 7.4 64.1-4.9 3.4-2 6.5-4.7 9.6-7.2 4.2-3.4 8.1-3.8 12.2-1.1 4.3 2.8 6.2 7.7 4.8 12.5-1.3 4.4-4.1 7.9-7.5 10.9-9.8 8.5-20.9 14.8-33.5 18-32.9 8.2-62.1 1.1-87.2-21.7-16.2-14.7-26.1-33.4-31.2-54.6-2.3-9.4-3.4-18.8-3.3-26.4z"/>
		<path id="Layer" class="s0" d="m75.5 101.5c-0.3-8.7 6.3-17.7 18-17.8 9.7-0.1 17.5 8 17.5 17.8 0 9.9-8 18.1-18 17.8-11-0.3-17.6-8.9-17.5-17.8z"/>
	</g>
</svg>