<?xml version="1.0" standalone="no"?>
<!DOCTYPE svg PUBLIC "-//W3C//DTD SVG 20010904//EN"
 "http://www.w3.org/TR/2001/REC-SVG-20010904/DTD/svg10.dtd">
<svg version="1.0" xmlns="http://www.w3.org/2000/svg"
 width="720.000000pt" height="720.000000pt" viewBox="0 0 720.000000 720.000000"
 preserveAspectRatio="xMidYMid meet">
<metadata>
Created by potrace 1.14, written by Peter Selinger 2001-2017
</metadata>
<g transform="translate(0.000000,720.000000) scale(0.100000,-0.100000)"
fill="#000000" stroke="none">
<path d="M3958 7196 c-1 -2 -40 -7 -85 -10 -45 -4 -104 -11 -131 -15 -27 -4
-61 -7 -76 -6 -14 0 -26 -2 -26 -5 0 -3 -10 -6 -22 -6 -21 -1 -57 -6 -118 -19
-14 -2 -36 -7 -50 -10 -14 -2 -41 -7 -60 -11 -39 -6 -62 -11 -70 -14 -3 -1 -8
-2 -11 -2 -3 1 -69 -17 -145 -39 -76 -22 -146 -41 -154 -43 -25 -7 -193 -67
-225 -81 -16 -7 -41 -18 -55 -23 -69 -29 -284 -136 -350 -174 -131 -77 -140
-83 -140 -90 0 -5 -5 -8 -11 -8 -15 0 -201 -136 -293 -213 -119 -101 -346
-334 -425 -437 -19 -25 -42 -52 -50 -62 -9 -9 -32 -39 -51 -68 -19 -28 -49
-70 -66 -93 -17 -23 -39 -58 -50 -77 -10 -19 -22 -37 -25 -40 -10 -7 -48 -71
-61 -102 -7 -16 -16 -28 -20 -28 -4 0 -8 -9 -8 -19 0 -11 -4 -21 -9 -23 -11
-4 -111 -205 -111 -223 0 -8 -4 -15 -8 -17 -7 -2 -119 -289 -126 -323 -2 -5
-9 -30 -16 -55 -7 -25 -15 -49 -16 -55 -40 -156 -57 -229 -64 -270 -5 -27 -11
-59 -13 -70 -6 -24 -19 -110 -23 -145 -1 -14 -3 -25 -4 -25 0 0 -3 -22 -5 -50
-3 -27 -7 -66 -10 -85 -17 -119 -27 -561 -13 -598 6 -17 5 -21 -4 -16 -6 4 -9
3 -6 -2 3 -5 9 -45 12 -89 4 -44 8 -94 11 -111 2 -18 7 -63 10 -100 4 -38 9
-72 11 -75 2 -3 6 -26 10 -50 7 -51 11 -76 18 -105 2 -12 7 -38 10 -59 4 -20
8 -40 10 -44 2 -3 7 -22 10 -41 3 -19 15 -71 27 -115 11 -44 23 -90 25 -102
11 -57 127 -395 165 -480 10 -24 19 -45 19 -48 0 -10 121 -266 130 -275 3 -3
20 -34 39 -70 62 -118 261 -423 301 -460 3 -3 34 -41 70 -85 74 -91 68 -84
177 -197 105 -109 255 -243 393 -351 95 -76 305 -217 320 -217 6 0 10 -3 10
-7 0 -5 10 -13 23 -19 12 -6 63 -33 112 -60 125 -68 307 -153 325 -151 3 0 16
-5 28 -12 79 -42 437 -145 542 -156 14 -1 34 -5 45 -8 11 -3 43 -9 70 -12 28
-3 60 -7 72 -9 121 -24 577 -24 733 -1 14 2 50 7 80 10 63 7 105 13 140 20 14
3 39 7 55 9 17 3 53 10 80 16 28 6 59 14 70 16 19 4 43 9 83 18 100 23 301 90
407 136 156 68 446 229 503 280 9 8 31 24 47 34 68 44 225 174 297 248 128
129 203 269 212 397 8 114 -25 208 -104 290 -135 142 -303 166 -452 64 -51
-35 -125 -93 -178 -141 -14 -12 -33 -25 -42 -28 -10 -3 -18 -9 -18 -13 0 -17
-223 -153 -380 -231 -147 -74 -421 -176 -520 -193 -14 -3 -43 -10 -65 -15 -48
-13 -113 -24 -225 -39 -70 -10 -407 -10 -485 -1 -127 16 -375 69 -435 95 -8 3
-22 7 -30 9 -36 7 -328 131 -340 144 -3 3 -27 16 -55 30 -135 66 -351 216
-479 332 -355 320 -634 756 -789 1233 -27 83 -55 181 -63 225 -3 14 -13 68
-24 120 -20 99 -25 128 -35 220 -4 30 -9 66 -11 80 -24 141 -23 578 1 755 7
52 27 176 30 195 17 81 48 205 63 250 11 30 19 59 20 63 0 4 4 20 10 35 6 15
13 36 18 47 4 11 8 25 9 30 16 63 163 362 224 455 20 30 38 60 41 65 49 100
318 403 435 490 22 16 42 33 45 36 12 15 200 139 254 168 33 17 64 35 70 39
23 16 200 93 261 113 22 7 45 16 50 20 12 8 257 78 295 84 14 2 36 7 50 10 14
3 54 10 90 16 36 5 76 12 90 14 141 23 555 23 730 1 14 -2 54 -6 90 -10 36 -4
83 -10 105 -13 22 -3 51 -7 65 -8 42 -5 104 -15 130 -20 14 -2 36 -7 50 -10
14 -2 39 -7 55 -10 17 -3 41 -7 55 -11 40 -9 193 -11 210 -2 8 4 36 16 62 28
46 20 148 109 148 129 0 6 5 11 12 11 6 0 8 3 5 7 -4 3 -1 13 7 22 21 25 48
118 51 180 13 229 -128 392 -430 500 -35 12 -253 66 -305 75 -19 3 -46 8 -60
11 -14 3 -47 8 -75 10 -27 3 -75 9 -105 14 -49 8 -613 14 -622 7z"/>
<path d="M3924 4268 c-91 -10 -182 -37 -234 -69 -8 -5 -22 -12 -30 -16 -26
-12 -42 -26 -114 -98 -125 -124 -177 -261 -171 -448 6 -179 62 -312 183 -432
79 -79 147 -114 314 -165 47 -14 248 -5 303 14 133 45 239 121 319 229 40 54
92 172 106 241 13 62 16 179 6 232 -10 54 -46 163 -56 169 -6 3 -10 15 -10 25
0 10 -3 20 -8 22 -4 2 -16 17 -27 34 -69 110 -222 220 -345 249 -76 18 -156
23 -236 13z"/>
</g>
</svg>
