<svg version="1.2"
	xmlns="http://www.w3.org/2000/svg" viewBox="0 0 522 540" width="522" height="540">
	<title>actu-svg</title>
	<style>
		.s0 { fill: #fff } 
	</style>
	<path id="Layer" class="s0" d="m250.7 417.1q0-17 0-33.9c0-1.9 0.2-4.2-0.9-5.5-4.8-6.2-4.2-13.3-4.2-20.5 0.1-7.1-2.2-9.2-9.4-9.4-20-0.5-40-0.1-59.8-1.9-12.9-1.2-25.7-5.3-38.3-8.9-16.8-4.7-32.3-12.6-46.9-22-10.8-7-20.5-15.8-30.4-24.1-10.4-8.8-19.1-19.2-26.1-30.8-6.5-10.8-13-21.7-18.1-33.2-5.3-12-9.9-24.5-13.1-37.2-2.4-9.5-2.8-19.6-3.1-29.4-0.4-13.6 11.2-19.4 21.2-20.6 17.7-2.1 31.7 5.7 44.1 17 11.6 10.6 20.4 23.5 27.9 37.3 5.9 11 12.4 21.6 18.5 32.5 6.9 12.4 15.6 23.1 27.6 30.9 2.1 1.4 4.6 2.4 7.1 3 2.8 0.8 5.8 1.1 8.8 1.3 3 0.2 6.4 3.2 9.1-0.5 2.8-3.9 0.6-7.6-1.3-10.7-7.2-11.8-14.1-23.9-22.3-35-10.9-14.5-23-28.1-34.4-42.2-16.7-20.7-32.5-42.1-42-67.2-4.9-13.2-6.2-27.4-1.2-41 3.7-10.1 12.5-16.3 21.1-22.3 15.7-10.9 33.5-17.3 51.2-23.9 6-2.2 12.2-3.8 18.5-5.4 43.5-11.1 87.6-14.5 132.3-12.1 18.1 1 36 2.4 53.7 6.9 15.1 3.8 30.7 5.9 45.4 10.6 21 6.7 41.3 15.3 58.9 29 15.7 12.2 21.2 33.5 14.7 52.4-9.8 28.5-27.2 52-45.7 75-14 17.5-28.3 34.6-41.7 52.5-6.3 8.5-10.7 18.5-15.7 28-1.9 3.5 0.2 6.8 4.5 6.6 10.3-0.5 20.4-2.2 28.3-9.7 14-13.1 23.6-29.4 32.4-46.1 9.5-18.2 19.3-36.2 34.8-50.1 12.9-11.5 27.3-19.6 45.7-16.9 9.7 1.5 19.3 8.9 19.9 17.2 0.5 6.9 0.4 14-0.8 20.7-1.9 10-4.6 20-7.6 29.7-4.7 15.1-11.7 29.2-19.8 42.8-9.1 15.3-19.4 29.7-32.7 41.5-10.2 9-21.3 17.1-32.8 24.3-11.1 6.9-23.1 12.5-35 17.9-6.4 2.9-13.5 4.1-20.3 6.1-5.5 1.6-10.9 4-16.5 4.7-12.2 1.5-24.5 2.7-36.8 3.2-11.8 0.5-23.6 0.3-35.4-0.2-5.2-0.2-6.9 2.2-7.3 6.6-0.2 2.2-0.1 4.5 0 6.8 0.3 5.1 0.4 9.9-3.4 14.2-1.4 1.6-1.6 4.6-1.6 6.9-0.1 23.1-0.1 46.2-0.1 69.4 0 7.6 1.6 8.7 9 7.6 16.1-2.5 32.3-4.8 48.4-7.3 15.3-2.3 30.5-4.8 45.8-7.1 6.9-1 13.8-1.7 20.7-2.7 4.9-0.7 6.3 2.9 7.7 6.3 1.5 3.6-1.1 5.7-3.8 6.9-2.5 1.1-5.7 2.4-7.9 1.7-7-2.3-13.4 0-19.9 1.6-19.7 4.9-39.3 10-58.9 15.2-1.4 0.4-2.6 1.7-4 2.6 1.3 1.7 2.2 4.2 3.8 4.9 5.2 2.2 10.8 3.7 16.2 5.5 17.6 5.8 35.3 11.4 52.8 17.4 13.4 4.6 26.7 9.8 40 14.8 3.9 1.5 10.3 13.3 9 17.1-0.4 1.2-2.8 2.8-4.1 2.6-8.2-1.4-16.1-2.7-22.1-9.9-2.6-3.1-8.2-4.1-12.7-5.2-18.3-4.8-36.7-9.2-55-13.7-9.9-2.4-19.9-4.7-29.9-7.1-9.4-2.3-19-4.2-28.2-7.2-11.6-3.7-22.7-3.8-34.2 0.3-7 2.5-14.3 4.3-21.5 6.1-22.9 5.8-45.8 11.3-68.7 17.1-11.1 2.8-22.1 6-33 9.2-1.9 0.6-4 1.9-5 3.5-3.3 5.5-8.8 6.5-14.2 7.5-3.9 0.8-6-1-6.8-5.1-1.8-10.1 0.2-12.6 10.9-16.2 11.8-4 23.4-8.6 35.2-12.8 5.7-2.1 11.4-4 17.2-5.9 17.3-5.7 34.6-11.2 51.9-17 1.5-0.5 2.6-2.1 3.9-3.2-1.5-1.5-2.8-3.7-4.6-4.3-6.5-2-13.1-3.4-19.6-5-10.1-2.5-20.2-5.1-30.3-7.6-6-1.5-12-3.4-18.1-4.7-2.9-0.6-6.1-0.1-9.2-0.1-3.1 0-6.3 0.3-9.3 0-7-0.8-7.9-1.9-7.1-7.4 1-7 3.6-9 9.9-8.1 17.9 2.4 35.8 4.6 53.7 7.3 13.2 2 26.3 4.6 39.5 6.8 8 1.3 16.1 2.5 24.2 3.6 4.7 0.6 7.3-2 7.3-7.2q0-17.7 0-35.1z"/>
</svg>