<svg version="1.2"
	xmlns="http://www.w3.org/2000/svg" viewBox="0 0 290 555" width="47" height="90">
	<title>collections-svg</title>
	<style>
		.s0 { fill: #fff } 
	</style>
	<path id="Layer" class="s0" d="m129.1 266.1c-17.8-1.4-35.5-2-53.2-0.6-11.1 0.9-18.4 6.6-19.5 18.3-2.6 25.5-6.5 50.8-9.7 76.2-1.4 10.8-2 21.6-3.4 32.4-4 30.7-8.2 61.3-12.2 92-1.8 13.9-3.7 27.9-4.6 41.9-0.4 6.4 1.9 12.9-0.6 19.4-1.5 4-2.5 8.4-8 7.4-4.8-0.9-5.7-5-5.5-9.1 0.2-3.9 1-7.8 1.7-11.6 1.6-8.9 3.9-17.7 5-26.6 3.5-27.7 6.6-55.5 9.8-83.2 2.7-24 5.1-48.1 7.9-72.2 2.8-24.8 5.9-49.5 8.5-74.2 0.7-6.7 3.8-11.7 8.4-16 1-0.9 2.3-1.6 4.6-3.2-6.1-2.9-10.2-5.3-14.6-6.8-12-4.3-24.1-8.1-36.1-12.5-2.7-1-5.2-3.1-7.4-5.1-0.5-0.5 0.3-3.7 1.1-4 3.3-1.2 6.8-2.5 10.2-2.3 17.4 0.8 34.8 2.2 52.2 3 7.5 0.4 14.9 0.1 22.4 0 6.4-0.1 10-4 12.1-9.6 5-13.6 6.2-27.6 4.8-42-1.9-19.1-3.5-38.3-5.5-57.4-1.4-13.6-7.9-23.9-20-30.9-22.9-13.3-42.6-30.7-61.4-49-2-2-3.8-4.3-5.3-6.6-3.6-5.3-2.2-11.8 3.8-16.3 3.1-2.3 6.7-4.4 10.4-5.2 13.2-3 26.4-5.6 39.7-8 28.8-5.1 57.9-3.5 86.9-3.9 18.3-0.3 36.8-0.1 55 1.5 14.6 1.3 29 4.9 43.5 7.8 6.4 1.3 13.1 2.6 18.7 5.6 4.2 2.3 8.2 6.9 9.6 11.3 1 3.2-1.4 8.9-4.1 11.7-10 10.3-20.4 20.4-31.4 29.6-10.1 8.5-21.3 15.8-32 23.5-3.7 2.7-8.2 4.4-11.6 7.5-3 2.7-6.5 6.6-6.9 10.2-2.4 23-4.3 46.1-5.8 69.1-0.7 10.1-0.2 20.3 0.2 30.4 0.1 3.4 1.1 7.1 2.6 10.2 4 8.2 10.4 11.5 19.9 10.8 21.8-1.5 43.8-2.1 65.6-2.9 5.2-0.2 10.9-1.4 15.2 5.2-3 1.8-5.7 4-8.8 5.2-8.1 3.2-16.3 5.9-24.5 8.8-6 2.2-12 4.3-18 6.7-2 0.8-3.7 2.4-6.5 4.2 11.4 6.9 12.1 17.5 13.2 28.3 3.3 31.9 7.4 63.6 11 95.5 3.4 29.2 6.5 58.3 9.9 87.5 2 17.5 4 35 6.5 52.5 1.2 8.1 3.8 15.9 5.2 24 1.1 6.1-2.8 10.6-8 9.6-1.5-0.3-3.7-1.6-3.9-2.8-1.4-6.3-2.6-12.8-3.3-19.2-0.9-8.6-1-17.4-2.1-26-3-24.2-6.5-48.3-9.5-72.5-2.6-21.2-4.7-42.5-7.3-63.6-2.6-20.8-5.6-41.6-8.3-62.4-1-8.3-1.4-16.7-2.3-25-1.2-11.5-5.6-15.6-20.4-15.1-2.4 0.1-5.2 0.4-7.3-0.6"/>
</svg>