<svg version="1.2"
	xmlns="http://www.w3.org/2000/svg" viewBox="0 0 340 468" width="65" height="90">
	<title>contact-svg</title>
	<style>
		.s0 { fill: #fff } 
	</style>
	<path id="Layer" fill-rule="evenodd" class="s0" d="m262.8 176.3c-22.6 0-45.1 0-67.7 0-0.8 0-1.6-0.1-2.3 0.1-2.2 0.9-5.8 1.6-6.2 3-0.5 2.1 0.9 5 2.2 7.1 3.9 6.3 8.2 12.4 12 18.7 0.8 1.3 0.4 3.2 0.5 4.9-1.5 0-3.1 0.1-4.6 0-0.9 0-1.8-0.4-2.7-0.5-5.8-0.6-11.7-0.9-17.5-1.6-5.9-0.8-11.6-1.3-17.4 1-3.3 1.3-7.3 0.7-11 1.1-2.1 0.2-4.3 0.6-6.4 0.9-1.3 0.1-3.6 0.5-3.7 0.1-0.5-1.5-1-3.6-0.3-4.7 3.9-6.5 8.1-12.8 12.2-19.2 0.2-0.3 0.5-0.4 0.6-0.7 1-2.4 1.9-4.8 2.9-7.2-2.4-0.9-4.7-2.5-7.2-2.6-10.6-0.4-21.2-0.3-31.7-0.3-34.9 0-69.7 0.1-104.6 0.1-8.4 0-9.6-1.3-9.6-9.8 0-17.9 2.5-35.4 8.3-52.3 3.4-10 9-19.2 13.7-28.8 6.3-12.7 15-23.6 24.8-33.6 10.4-10.7 21.6-20.3 34.8-27.8 12.6-7.2 25.5-13.1 39.4-17.3 29.6-9 59.2-8.5 88.9-2.4 9.2 1.9 17.9 6 26.8 9.3 17.6 6.4 32.6 17.2 46.6 29.3 10 8.6 18.7 18.6 25.8 29.8 4.8 7.6 9.6 15.2 13.9 23.1 2.9 5.3 5.3 10.9 7 16.7q4.2 14.5 6.9 29.4c1.4 7.9 2.2 16.1 2.4 24.1 0.3 8.6-1.9 10.3-10.4 10.3-22.2-0.1-44.3-0.1-66.4-0.2zm-87.7 8.7c-2.4-2.4-3.8-4.9-5.4-5.1-3.3-0.4-4.2 2.5-4.3 5.3-0.1 2.7 1 5.4 4.1 4.8 1.6-0.3 3-2.7 5.6-5z"/>
	<path id="Layer" class="s0" d="m237.4 349c0 26.1-0.1 52.3 0.1 78.4 0 6.8 0.6 13.7 1.2 20.5 1.2 13.4-6.5 17-18.1 18.8-7.5 1.1-15.2 0.3-22.8 0.3-25.7 0-51.3 0.2-77-0.4-5.3-0.1-10.6-3-15.6-5.2-1.6-0.7-3.1-3.3-3.4-5.2-0.7-4.7-1.1-9.6-1-14.4 0.3-9.6 1.4-19.2 1.4-28.8 0.1-48.2 0-96.4-0.1-144.7 0-9.3 2.4-10.8 11.6-9.7 7.7 0.9 15.5 0 23.2 0.3 11.3 0.4 22.6 1.7 33.9 1.7 13-0.1 26-1 39-1.9 6.1-0.4 12.2 1.6 18.3-1.5 3.8-1.9 9.2 3.8 9.2 9.2 0.1 12.3 0 24.6 0 36.9 0.2 15.2 0.2 30.5 0.1 45.7z"/>
	<path id="Layer" class="s0" d="m102.1 265.7l54.9-94.5h26.8l51.6 88.4-32.2 42.9"/>
</svg>