<svg version="1.2"
	xmlns="http://www.w3.org/2000/svg" viewBox="0 0 446 562" width="71" height="90">
	<title>QSN-svg</title>
	<style>
		.s0 { fill: #fff } 
	</style>
	<path id="Layer" class="s0" d="m75.6 265c0.5 41.3 6.7 76.2 22.5 109.1 21.7 45.2 54.1 80.2 100 101 58.5 26.6 115.4 20.3 170.2-11.2 10.1-5.8 20-12.7 28.3-20.9 12.8-12.5 27.4-10 36.7-3.2 12.3 9 16.4 23.9 10.2 38.4-4.2 9.8-10.8 17.9-18.8 24.8-26.2 22.4-55.6 38.9-88.8 48.4-92.1 26.3-188.6-1.3-254.4-71.9-39.4-42.3-63-92.5-74.3-148.9-5.7-28.4-7.3-57.1-5.1-85.9 8.8-116.6 84.3-204.6 185.7-232.6 40.3-11.1 81.4-15 123-8.9 11.1 1.6 22.2 4.6 33 7.8 9.2 2.7 17.7 7.4 24.5 14.5 8.7 9.1 10.3 26.7 3.5 39.1-6.3 11.4-19.1 17.7-32.1 14.8-20.1-4.5-40.3-6.8-60.8-7.9-27.2-1.4-54.1 0.6-80 9.6-52.7 18.3-88.3 54.3-108.7 105.8-10.6 26.7-14.4 54.7-14.6 78.1z"/>
	<path id="Layer" class="s0" d="m301.6 277.6c0.9 27.3-21.9 48.8-48.7 49-25.9 0.2-48.6-21.2-48.7-49.2-0.1-22 17-48.4 49.5-48.3 27 0.1 47.7 21.3 47.9 48.5z"/>
</svg>