<svg version="1.2"
	xmlns="http://www.w3.org/2000/svg" viewBox="0 0 570 499" width="103" height="90">
	<title>realisations-svg</title>
	<style>
		.s0 { fill: #fff } 
	</style>
	<path id="Layer" class="s0" d="m289.2 13.3c62.5 6 125 11 187.3 18.6 24.7 3 49.7 7.5 73.4 18.7 4.9 2.3 9.1 4.9 9.3 12.6 0.2 8.4-4.8 10-9.5 11.8-38 14.8-77.3 18.6-116.7 21.4-34.9 2.4-69.9 3.3-104.9 4.7-6.9 0.3-12.4 4.1-15.1 11.7-4.1 11.6-8.5 23.3-10.5 35.5-6.6 40.1-10.6 80.8-11.2 121.8-0.5 34.1-1.1 68.2-0.9 102.3 0.1 22.4 9.8 39.2 22.9 53.1 2.6 2.7 6.6 3.7 10.1 4.7 15.8 4.2 31.7 7.6 47.3 12.4 5.9 1.8 11.5 6.1 16.8 10.2 6.6 5.2 7.1 14.8 1 21.4-3.3 3.5-7.3 7-11.4 8.3-14.9 4.7-29.8 10-44.9 12.1-34.6 4.9-69.4 4.4-103.9-1.6-15.2-2.6-30-8.1-44.9-12.7-3.4-1.1-6.6-4-9.6-6.6-10.6-9.2-10.8-17.9 0.3-25.2 7.4-4.9 15.7-8.5 23.9-10.8 14.4-4.1 29.3-5.9 43.7-10.1 11.1-3.3 17.4-14.5 22.4-26.6 8-19.4 9.6-40.2 9.3-61.6-0.7-51.3-0.5-102.7-2-154-0.7-24-5.4-47.5-13.7-69.6-4-10.6-10.1-15.9-19.4-16.7-36-2.8-72-5-107.9-9-35.6-3.9-71.2-8.9-105.4-23.1-1.7-0.7-4.1-0.9-5-2.4-2.3-3.5-5.2-7.7-5.3-11.6 0-3.2 3.3-8.5 5.9-9.4 15.3-4.9 30.8-9.3 46.4-13 49.8-11.8 100.4-9.9 150.6-14.1 23.8-1.8 47.9-3.6 71.6-3.2 0.1-1.4 0 1.3 0 0z"/>
	<path id="Layer" class="s0" d="m284.9 118.9c-157.1 0-284.1-26.4-284.1-59 0-32.6 127-59 284.1-59 157.1 0 284.1 26.4 284.1 59 0 32.6-127 59-284.1 59z"/>
	<path id="Layer" class="s0" d="m279.9 497.9c-72.4 0-130.9-15.6-130.9-34.9 0-19.3 58.5-34.9 130.9-34.9 72.4 0 130.9 15.6 130.9 34.9 0 19.3-58.5 34.9-130.9 34.9z"/>
</svg>