<svg version="1.2"
	xmlns="http://www.w3.org/2000/svg" viewBox="0 0 842 333" width="410" height="150">
	<title>arflex-svg</title>
	<style>
		.s0 { fill: #d12f27 } 
		.s1 { fill: #d12e26 } 
	</style>
	<g id="Uhg6sN.tif">
		<g id="Layer">
			<path id="Layer" fill-rule="evenodd" class="s0" d="m652.6 204.3c-43 0-85.6 0-128.6 0 0.1 1.7 0.2 3.2 0.4 4.7 1 8.6 3.8 16.6 9.2 23.4 6.7 8.4 15.3 13.3 26 14.7 9.1 1.1 17.9-0.2 26.1-4.4 6.8-3.5 11.7-8.8 15.1-15.6 0.4-0.8 0.8-1.5 1.1-2.3 15.6 0 31.2 0 47.1 0-0.4 2.2-0.7 4.3-1.3 6.4-2 7.5-5.6 14.2-10.2 20.4-13.8 18.8-32.2 30.4-55.3 34.5-7.9 1.4-15.8 1.6-23.8 1-8.5-0.6-16.7-2.1-24.7-4.8-23.8-8-41.3-23.2-52.3-45.8-5.3-10.9-8.3-22.4-9.6-34.5-1.7-16-0.4-31.7 5.2-46.9 9.8-26.3 27.9-44.3 54.5-53.6 12-4.2 24.5-5.3 37.1-4.6 9.5 0.6 18.7 2.4 27.6 5.9 15.1 5.9 27.3 15.6 36.7 28.8 7.9 11.3 13 23.9 16.1 37.2 2.6 11.1 3.7 22.3 3.7 33.6-0.1 0.7-0.1 1.2-0.1 1.9zm-51.6-34.1c0-0.6 0.1-0.9 0-1.2-0.1-1.2-0.1-2.3-0.3-3.5-1.7-13.2-8.5-22.7-20.8-28-9.7-4.2-19.9-4.7-30-1.7-14.4 4.2-23.5 13.8-26.6 28.6-0.4 1.9-0.5 3.8-0.3 5.8 26.1 0 51.9 0 78 0z"/>
			<path id="Layer" fill-rule="evenodd" class="s0" d="m96.3 150.2c-13.6 0-26.9 0-40.4 0-0.4-3.4 0-6.6 0.5-9.8 2.7-17.2 12.1-29.6 27.3-37.8 8-4.3 16.6-6.7 25.4-8.4 9.2-1.7 18.6-2.4 28-2.2 14.1 0.2 27.9 2.6 40.7 8.7 10.1 4.8 18.6 11.6 24.7 21.1 5 7.8 7.5 16.4 7.5 25.7 0 35.4 0 70.8 0 106.1 0 4.9 0.3 9.9 0.7 14.8 0.3 4.5 1.9 8.6 4.3 12.4 0.3 0.5 0.5 0.9 0.8 1.4 0 0.1 0 0.1-0.1 0.3-16 0-32.1 0-48.4 0 0-6.1 0-12.3 0-18.9-0.6 0.5-0.8 0.7-0.9 0.9-6.2 7.7-14.3 12.7-23.6 15.8q-11.4 3.9-23.4 4.2c-5.4 0.2-10.9 0.4-16.2-0.1-15.8-1.3-30.3-6.1-42.6-16.4-10.3-8.7-16.4-19.8-17.5-33.4-0.9-10.6 0.4-20.9 5-30.6 4.8-10.2 12.7-17.4 22.4-22.7 9.5-5.2 19.7-8.5 30.3-10.5 10.8-2 21.7-3.5 32.5-5.3 6.6-1.1 13.2-2.3 19.8-3.7 1.7-0.3 3.4-1.1 5-1.9 4.5-2.1 6.6-5.7 6.7-10.5 0.2-7.6-3.1-13.4-9.3-17.7-4.8-3.3-10.2-5.2-15.9-6-8.3-1.2-16.5-1.2-24.6 1.3-10.7 3.2-17 10.3-18.5 21.4 0 0.7-0.1 1.1-0.2 1.8zm69 38.9c-1.7 0.6-3.5 1.2-5.2 1.7-9.9 3.2-20 5.2-30.1 7.5-7.7 1.8-15.4 3.2-22.8 6-4.1 1.5-7.9 3.4-11.4 6.1-9.8 7.6-9.5 21.2-4 28.6 2.5 3.3 5.8 5.6 9.5 7.2 4.9 2.1 10 3.1 15.3 3.5 8.6 0.6 17.2 0 25.4-2.7 8-2.6 14.4-7.4 18.5-14.9q3.6-6.6 4.5-14.1c1.1-9.5 0.5-19 0.5-28.5-0.1-0.1-0.1-0.2-0.2-0.4z"/>
			<path id="Layer" class="s0" d="m741.4 184.2c22.8 32.8 45.5 65.6 68.5 98.8-1.2 0-2 0-2.7 0-16.3 0-32.5 0-48.8 0-1.7 0-2.6-0.5-3.5-1.9-11.6-18.7-23.3-37.4-35-56.1-0.4-0.7-0.9-1.4-1.5-2.4-0.6 0.9-1.1 1.5-1.5 2.2-12 18.7-23.9 37.4-35.8 56.2-0.9 1.5-1.9 2.1-3.7 2.1-15.6-0.1-31.3-0.1-46.9-0.1-0.7 0-1.4 0-2.6 0 7.3-11 14.5-21.7 21.7-32.4 7.1-10.7 14.3-21.3 21.5-32 7.2-10.7 14.4-21.4 21.8-32.4-19.8-28.8-39.5-57.6-59.5-86.7 0.7-0.1 1.1-0.2 1.5-0.2 16.2 0 32.4 0 48.5-0.1 1.5 0 2.2 0.7 2.9 1.8 10.5 15.9 21 31.8 31.4 47.7 0.6 0.9 1.2 1.8 2 2.9 0.6-1 1.1-1.8 1.6-2.6 9.6-15.9 19.1-31.8 28.6-47.8 1-1.6 2-2.2 3.8-2.2 13.6 0.1 27.3 0 40.9 0 0.7 0 1.5 0.1 2.6 0.1-18.5 28.6-37.1 56.8-55.8 85.1z"/>
			<path id="Layer" class="s1" d="m378.2 93.7c11.4 0 22.5 0 33.5 0 0.5 1.7 0.6 36.3 0.1 39.6-11.1 0-22.2 0-33.6 0 0 50 0 99.8 0 149.7-15.8 0-31.3 0-47.1 0 0-0.9 0-1.6 0-2.4 0-66.7 0-133.4 0-200.2 0-7.7 1-15.1 3.9-22.2 5-12.4 14-21 26.2-26.2 6.1-2.6 12.5-4 19.2-4.1 10.4-0.1 20.7-0.1 31.1-0.2 0.2 0 0.5 0 0.7 0.1 0.5 1.7 0.5 37.5 0.1 40.4-4.5 0-9.1-0.1-13.6 0-4 0.1-7.8 0.9-11.4 2.6-5.7 2.7-8.6 7.4-9 13.6-0.2 3-0.1 6-0.1 9.3z"/>
			<path id="Layer" class="s0" d="m419 27.9c15 0 29.9 0 44.8 0 0 85 0 169.9 0 254.9-15 0-29.8 0-44.8 0 0-85 0-169.9 0-254.9z"/>
			<path id="Layer" class="s0" d="m267.9 283.2c-15.8 0-31.4 0-47 0 0-61.4 0-122.6 0-184.1 15.3 0 30.6 0 46.2 0 0 5.8 0 11.6 0 17.5 1.4 0.2 1.8-0.7 2.3-1.3 3.2-3.5 6.6-6.7 10.5-9.4 8.4-5.9 17.8-9.5 28-11.2 5.1-0.9 10.3-1.2 15.5-1.2 0.5 0 1.1 0.1 1.8 0.1 0 13.6 0 27.1 0 40.6-3.2 0.1-6.4 0.2-9.6 0.4-7.6 0.5-15 2.2-21.8 5.8-10.7 5.5-17.8 14.1-21.9 25.3-2.7 7.3-3.9 15-3.9 22.8 0 30.6 0 61.2 0 91.7-0.1 0.9-0.1 1.8-0.1 3z"/>
		</g>
	</g>
</svg>